# Blender 4.0.2
# www.blender.org
o Cilindro
v -0.000000 0.000000 -0.230358
v 0.000000 11.990000 -0.070000
v 0.162888 0.000000 -0.162888
v 0.049498 11.990000 -0.049498
v 0.230358 0.000000 -0.000000
v 0.070000 11.990000 0.000000
v 0.162888 0.000000 0.162888
v 0.049498 11.990000 0.049498
v -0.000000 0.000000 0.230358
v 0.000000 11.990000 0.070000
v -0.162888 0.000000 0.162888
v -0.049498 11.990000 0.049498
v -0.230358 0.000000 -0.000000
v -0.070000 11.990000 0.000000
v -0.162888 0.000000 -0.162888
v -0.049498 11.990000 -0.049498
v -0.000000 4.503926 -0.109174
v 0.077198 4.503926 -0.077198
v 0.109174 4.503926 -0.000000
v 0.077198 4.503926 0.077198
v -0.000000 4.503926 0.109174
v -0.077198 4.503926 0.077198
v -0.109174 4.503926 -0.000000
v -0.077198 4.503926 -0.077198
v 0.000000 6.181256 -0.070000
v 0.049498 6.181256 -0.049498
v 0.070000 6.181256 0.000000
v 0.049498 6.181256 0.049498
v 0.000000 6.181256 0.070000
v -0.049498 6.181256 0.049498
v -0.070000 6.181256 0.000000
v -0.049498 6.181256 -0.049498
v 0.000000 11.714448 -0.070000
v 0.049498 11.714448 -0.049498
v 0.070000 11.742734 0.000000
v 0.049498 11.714448 0.049498
v 0.000000 11.714448 0.070000
v -0.049498 11.714448 0.049498
v -0.070000 11.714448 0.000000
v -0.049498 11.714448 -0.049498
v 0.049498 11.664891 -0.049498
v 0.070000 11.624981 0.000000
v 0.049498 11.664891 0.049498
v 0.000000 11.664891 0.070000
v -0.049498 11.664891 0.049498
v -0.070000 11.664891 0.000000
v -0.049498 11.664891 -0.049498
v 0.000000 11.664891 -0.070000
v 1.205915 11.885881 0.000000
v 1.185412 11.871072 0.049498
v 1.185412 11.871072 -0.049498
v 1.172522 11.828465 -0.049498
v 1.179140 11.818300 0.000000
v 1.172522 11.828465 0.049498
v 0.160583 11.637966 0.000000
v 0.251166 11.689277 0.000000
v 0.350714 11.763658 0.000000
v 0.468053 11.844029 0.000000
v 0.596121 11.904783 0.000000
v 0.728520 11.930635 0.000000
v 0.861453 11.926571 0.000000
v 0.990189 11.893649 0.000000
v 1.084972 11.837964 0.000000
v 1.083650 11.877398 0.049498
v 0.960250 11.937672 0.049498
v 0.828648 11.967235 0.049498
v 0.695718 11.970546 0.049498
v 0.565606 11.942067 0.049498
v 0.441141 11.873284 0.049498
v 0.326960 11.790037 0.049498
v 0.230663 11.717321 0.049498
v 0.140080 11.671932 0.049498
v 0.140080 11.721489 0.049498
v 0.230663 11.766878 0.049498
v 0.326960 11.840390 0.049498
v 0.439993 11.923545 0.049498
v 0.561032 11.991789 0.049498
v 0.688032 12.020103 0.049498
v 0.818919 12.016586 0.049498
v 0.950491 11.987259 0.049498
v 1.078042 11.927347 0.049498
v 1.097994 11.944600 0.000000
v 0.968537 12.011771 0.000000
v 0.838788 12.044566 0.000000
v 0.710355 12.048388 0.000000
v 0.584982 12.023194 0.000000
v 0.464719 11.963607 0.000000
v 0.350847 11.883506 0.000000
v 0.251166 11.807290 0.000000
v 0.160583 11.755719 0.000000
v 0.140080 11.721489 -0.049498
v 0.230663 11.766878 -0.049498
v 0.326960 11.840390 -0.049498
v 0.439993 11.923545 -0.049498
v 0.561032 11.991789 -0.049498
v 0.688032 12.020103 -0.049498
v 0.818919 12.016586 -0.049498
v 0.950491 11.987259 -0.049498
v 1.078042 11.927347 -0.049498
v 1.083650 11.877398 -0.049498
v 0.960250 11.937672 -0.049498
v 0.828648 11.967235 -0.049498
v 0.695718 11.970546 -0.049498
v 0.565606 11.942067 -0.049498
v 0.441141 11.873284 -0.049498
v 0.326960 11.790037 -0.049498
v 0.230663 11.717321 -0.049498
v 0.140080 11.671932 -0.049498
v 1.088904 11.807161 0.000000
v 1.137819 11.804279 0.000000
v 1.119936 11.813713 -0.035337
v 1.119936 11.813713 0.035337
v 1.092291 11.813713 0.035337
v 1.092291 11.813713 -0.035337
v 1.087506 11.785496 0.000000
v 1.152045 11.777607 0.000000
v 1.135982 11.779866 -0.027671
v 1.135982 11.779866 0.027671
v 1.071429 11.780931 0.027900
v 1.071429 11.780931 -0.027900
v 0.842800 11.538078 -0.000000
v 1.381976 11.537953 -0.000000
v 1.175149 11.537411 -0.250449
v 1.175149 11.537411 0.250449
v 0.899315 11.535767 0.156090
v 0.899315 11.535767 -0.156090
v 1.119936 11.787830 -0.035337
v 1.137819 11.785496 0.000000
v 1.119936 11.787830 0.035337
v 1.092291 11.787830 -0.035337
v 1.063374 11.778034 0.000000
v 1.092291 11.787830 0.035337
v 1.304147 11.535561 0.148239
v 1.028945 11.537409 0.250449
v 1.304147 11.535561 -0.148239
v 1.028945 11.537409 -0.250449
v 0.859360 11.683080 0.000000
v 1.024827 11.683935 0.243984
v 1.186781 11.683935 -0.243984
v 1.024827 11.683935 -0.243984
v 1.186781 11.683935 0.243984
v 1.364732 11.682817 0.000000
v 0.914651 11.684635 0.167331
v 1.293733 11.683850 -0.161950
v 0.914651 11.684635 -0.167331
v 1.293733 11.683850 0.161950
v 0.793213 11.588928 0.000000
v 1.197610 11.589314 -0.302257
v 1.197610 11.589314 0.302257
v 1.344659 11.588058 -0.186979
v 1.344659 11.588058 0.186979
v 1.010540 11.589314 0.302257
v 1.010540 11.589314 -0.302257
v 1.413901 11.588809 0.000000
v 0.861560 11.588532 0.195430
v 0.861560 11.588532 -0.195430
v 1.328198 11.535728 -0.164971
v 1.352472 11.538083 -0.000000
v 1.328198 11.535728 0.164971
v 1.184917 11.537953 0.278495
v 1.019816 11.537953 0.278495
v 1.184917 11.537953 -0.278495
v 1.019816 11.537953 -0.278495
v 0.875861 11.535947 -0.173712
v 0.812967 11.537953 -0.000000
v 0.875861 11.535947 0.173712
v 0.881002 11.665385 -0.000000
v 1.315313 11.665390 -0.000000
v 1.274133 11.662868 0.126320
v 0.929161 11.663074 0.133010
v 1.274133 11.662868 -0.126320
v 0.929161 11.663074 -0.133010
v 1.164210 11.664718 0.213417
v 1.039624 11.664716 0.213417
v 1.164210 11.664718 -0.213417
v 1.039624 11.664716 -0.213417
v -0.049498 10.198916 0.049498
v -0.069788 10.227202 0.000000
v -0.049498 10.198916 -0.049498
v -0.049498 10.149360 0.049498
v -0.069788 10.109449 0.000000
v -0.049498 10.149360 -0.049498
v -1.205702 10.370350 -0.000000
v -1.185200 10.355540 -0.049498
v -1.185200 10.355540 0.049498
v -1.172310 10.312934 0.049498
v -1.178927 10.302769 -0.000000
v -1.172310 10.312934 -0.049498
v -0.160371 10.122435 0.000000
v -0.250954 10.173745 0.000000
v -0.350502 10.248126 0.000000
v -0.467841 10.328498 -0.000000
v -0.595909 10.389252 -0.000000
v -0.728307 10.415104 -0.000000
v -0.861241 10.411039 -0.000000
v -0.989977 10.378118 -0.000000
v -1.084760 10.322433 -0.000000
v -1.083438 10.361866 -0.049498
v -0.960038 10.422140 -0.049498
v -0.828436 10.451703 -0.049498
v -0.695505 10.455014 -0.049498
v -0.565393 10.426536 -0.049498
v -0.440929 10.357753 -0.049498
v -0.326748 10.274506 -0.049498
v -0.230451 10.201790 -0.049498
v -0.139868 10.156401 -0.049498
v -0.139868 10.205957 -0.049498
v -0.230451 10.251347 -0.049498
v -0.326748 10.324859 -0.049498
v -0.439781 10.408013 -0.049498
v -0.560820 10.476257 -0.049498
v -0.687819 10.504571 -0.049498
v -0.818706 10.501055 -0.049498
v -0.950279 10.471727 -0.049498
v -1.077830 10.411816 -0.049498
v -1.097782 10.429069 -0.000000
v -0.968325 10.496240 -0.000000
v -0.838576 10.529035 -0.000000
v -0.710143 10.532857 -0.000000
v -0.584770 10.507663 -0.000000
v -0.464507 10.448075 -0.000000
v -0.350635 10.367974 0.000000
v -0.250954 10.291759 0.000000
v -0.160371 10.240188 0.000000
v -0.139868 10.205957 0.049498
v -0.230451 10.251347 0.049498
v -0.326748 10.324859 0.049498
v -0.439781 10.408013 0.049498
v -0.560820 10.476257 0.049498
v -0.687819 10.504571 0.049498
v -0.818706 10.501055 0.049498
v -0.950279 10.471727 0.049498
v -1.077830 10.411816 0.049498
v -1.083438 10.361866 0.049498
v -0.960038 10.422140 0.049498
v -0.828436 10.451703 0.049498
v -0.695505 10.455014 0.049498
v -0.565393 10.426536 0.049498
v -0.440929 10.357753 0.049498
v -0.326748 10.274506 0.049498
v -0.230451 10.201790 0.049498
v -0.139868 10.156401 0.049498
v -1.088692 10.291630 -0.000000
v -1.137607 10.288748 -0.000000
v -1.119724 10.298182 0.035337
v -1.119724 10.298182 -0.035337
v -1.092078 10.298182 -0.035337
v -1.092078 10.298182 0.035337
v -1.087294 10.269964 -0.000000
v -1.151832 10.262075 -0.000000
v -1.135769 10.264335 0.027671
v -1.135769 10.264335 -0.027671
v -1.071217 10.265399 -0.027900
v -1.071217 10.265399 0.027900
v -0.842587 10.022547 -0.000000
v -1.381763 10.022422 -0.000000
v -1.174937 10.021879 0.250449
v -1.174937 10.021879 -0.250449
v -0.899103 10.020235 -0.156090
v -0.899103 10.020235 0.156090
v -1.119724 10.272299 0.035337
v -1.137607 10.269964 -0.000000
v -1.119724 10.272299 -0.035337
v -1.092078 10.272299 0.035337
v -1.063162 10.262503 -0.000000
v -1.092078 10.272299 -0.035337
v -1.303934 10.020029 -0.148240
v -1.028733 10.021877 -0.250449
v -1.303934 10.020029 0.148239
v -1.028733 10.021877 0.250449
v -0.859148 10.167548 -0.000000
v -1.024615 10.168404 -0.243984
v -1.186568 10.168404 0.243983
v -1.024615 10.168404 0.243983
v -1.186568 10.168404 -0.243984
v -1.364520 10.167286 -0.000000
v -0.914439 10.169104 -0.167331
v -1.293520 10.168319 0.161949
v -0.914439 10.169104 0.167331
v -1.293520 10.168319 -0.161950
v -0.793000 10.073397 -0.000000
v -1.197398 10.073783 0.302257
v -1.197398 10.073783 -0.302257
v -1.344447 10.072527 0.186979
v -1.344447 10.072527 -0.186979
v -1.010328 10.073783 -0.302257
v -1.010328 10.073783 0.302257
v -1.413689 10.073277 -0.000000
v -0.861347 10.073001 -0.195430
v -0.861347 10.073001 0.195430
v -1.327986 10.020197 0.164971
v -1.352260 10.022552 -0.000000
v -1.327986 10.020197 -0.164971
v -1.184704 10.022422 -0.278495
v -1.019604 10.022422 -0.278495
v -1.184704 10.022422 0.278495
v -1.019604 10.022422 0.278495
v -0.875649 10.020415 0.173712
v -0.812755 10.022422 -0.000000
v -0.875649 10.020415 -0.173712
v -0.880790 10.149854 -0.000000
v -1.315101 10.149858 -0.000000
v -1.273921 10.147336 -0.126320
v -0.928949 10.147542 -0.133010
v -1.273921 10.147336 0.126320
v -0.928949 10.147542 0.133010
v -1.163998 10.149186 -0.213417
v -1.039412 10.149184 -0.213417
v -1.163998 10.149186 0.213417
v -1.039412 10.149184 0.213417
v 0.049498 10.149360 -0.049498
v 0.070000 10.120480 0.000000
v 0.049498 10.149360 0.049498
v 0.000000 10.149360 0.070000
v 0.000000 10.149360 -0.070000
v 0.000000 10.198916 -0.070000
v 0.049498 10.198916 -0.049498
v 0.070000 10.169461 0.000000
v 0.049498 10.198916 0.049498
v 0.000000 10.198916 0.070000
vn -0.0000 -0.0000 -1.0000
vn -0.0000 0.6303 -0.7764
vn 0.5490 0.6303 -0.5490
vn 0.3469 0.1692 -0.9225
vn 0.7764 0.6303 -0.0000
vn 0.7087 0.7055 -0.0000
vn 0.5490 0.6303 0.5490
vn 0.3469 0.1692 0.9225
vn -0.0000 0.6303 0.7764
vn -0.0000 -0.0000 1.0000
vn -0.5490 0.6303 0.5490
vn -0.7071 -0.0000 0.7071
vn -0.7764 0.6303 -0.0000
vn -1.0000 -0.0000 -0.0000
vn -0.5490 0.6303 -0.5490
vn -0.7071 -0.0000 -0.7071
vn -0.0000 -0.6201 -0.7845
vn 0.5547 -0.6201 -0.5547
vn 0.7845 -0.6201 -0.0000
vn 0.5547 -0.6201 0.5547
vn -0.0000 -0.6201 0.7845
vn -0.5547 -0.6201 0.5547
vn -0.7845 -0.6201 -0.0000
vn -0.5547 -0.6201 -0.5547
vn -0.7069 0.0251 -0.7069
vn -0.0000 0.0251 -0.9997
vn -0.9997 0.0251 -0.0000
vn -0.7069 0.0251 0.7069
vn -0.0000 0.0251 0.9997
vn 0.7069 0.0251 0.7069
vn 0.9997 0.0251 -0.0000
vn 0.7069 0.0251 -0.7069
vn -0.7074 0.0117 -0.7067
vn -0.0000 0.0117 -0.9999
vn -0.9999 0.0117 -0.0000
vn -0.7074 0.0117 0.7067
vn -0.0000 0.0117 0.9999
vn 0.7071 0.0117 0.7071
vn 0.9999 0.0117 -0.0000
vn 0.7071 0.0117 -0.7071
vn -0.7074 -0.0000 -0.7068
vn -0.7074 -0.0000 0.7068
vn 0.3590 -0.1686 0.9180
vn 0.4590 0.8885 -0.0000
vn 0.2394 0.4674 0.8510
vn 0.6346 0.1941 0.7481
vn 0.9204 0.3909 -0.0000
vn -0.9060 -0.4232 -0.0000
vn -0.2729 -0.3160 -0.9087
vn -0.6950 -0.1429 -0.7047
vn -0.9988 -0.0491 -0.0000
vn 0.3590 -0.1686 -0.9180
vn 0.7071 -0.0000 -0.7071
vn 0.8435 -0.5371 -0.0000
vn 1.0000 -0.0000 -0.0000
vn 0.7071 -0.0000 0.7071
vn -0.3468 0.1696 0.9225
vn -0.7098 0.7044 -0.0000
vn -0.3468 0.1696 -0.9225
vn 0.6664 -0.7456 -0.0000
vn 0.4510 -0.5174 0.7272
vn 0.4510 -0.5174 -0.7272
vn 0.6346 0.1941 -0.7481
vn -0.2729 -0.3160 0.9087
vn 0.2394 0.4674 -0.8510
vn -0.6950 -0.1429 0.7047
vn 0.2110 -0.3657 0.9065
vn -0.3543 0.9351 -0.0000
vn -0.1110 0.4457 -0.8883
vn -0.5683 0.8229 -0.0000
vn -0.2674 0.4456 -0.8543
vn -0.5905 0.8071 -0.0000
vn -0.3386 0.4507 -0.8260
vn -0.5025 0.8646 -0.0000
vn -0.3173 0.4798 -0.8180
vn -0.2957 0.9553 -0.0000
vn -0.2249 0.5354 -0.8141
vn -0.0600 0.9982 -0.0000
vn -0.0667 0.5406 -0.8386
vn 0.1477 0.9890 -0.0000
vn 0.0583 0.5138 -0.8559
vn 0.3506 0.9365 -0.0000
vn 0.1730 0.4942 -0.8520
vn 0.1338 -0.4602 -0.8777
vn 0.3140 -0.9494 -0.0000
vn 0.2537 -0.3994 -0.8809
vn 0.5392 -0.8422 -0.0000
vn 0.2658 -0.3643 -0.8925
vn 0.5886 -0.8085 -0.0000
vn 0.2187 -0.3555 -0.9087
vn 0.5145 -0.8575 -0.0000
vn 0.1336 -0.3542 -0.9256
vn 0.3139 -0.9495 -0.0000
vn 0.0458 -0.3869 -0.9210
vn 0.0556 -0.9985 -0.0000
vn -0.0405 -0.4192 -0.9070
vn -0.1688 -0.9857 -0.0000
vn -0.1364 -0.4239 -0.8954
vn -0.4028 -0.9153 -0.0000
vn 0.1338 -0.4602 0.8777
vn -0.1110 0.4457 0.8883
vn 0.2537 -0.3994 0.8809
vn -0.2674 0.4456 0.8543
vn 0.2658 -0.3643 0.8925
vn -0.3386 0.4507 0.8260
vn 0.2187 -0.3555 0.9087
vn -0.3173 0.4798 0.8180
vn 0.1336 -0.3542 0.9256
vn -0.2249 0.5354 0.8141
vn 0.0458 -0.3869 0.9210
vn -0.0667 0.5406 0.8386
vn -0.0405 -0.4192 0.9070
vn 0.0583 0.5138 0.8559
vn -0.1364 -0.4239 0.8954
vn 0.1730 0.4942 0.8520
vn -0.4178 0.7257 0.5467
vn 0.3970 0.6356 0.6621
vn -0.4178 0.7257 -0.5467
vn -0.7661 0.6427 -0.0000
vn 0.7586 -0.6515 -0.0000
vn 0.2110 -0.3657 -0.9065
vn -0.3040 0.0441 -0.9517
vn 0.3253 0.0331 -0.9450
vn 0.1820 -0.8017 -0.5693
vn -0.1778 -0.7997 -0.5735
vn -0.7949 0.0633 0.6034
vn -0.9953 0.0965 -0.0000
vn -0.6363 -0.7714 -0.0000
vn -0.4972 -0.7944 0.3490
vn 0.8099 0.5866 -0.0000
vn 0.3970 0.6356 -0.6621
vn 0.4094 -0.8589 -0.3078
vn 0.4981 -0.8671 -0.0000
vn 0.6661 -0.7459 -0.0000
vn 0.5302 -0.7461 -0.4028
vn -0.1668 -0.8699 0.4642
vn -0.4224 -0.8571 0.2950
vn -0.5458 -0.7450 0.3836
vn -0.2225 -0.7522 0.6202
vn 0.9999 0.0169 -0.0000
vn 0.8034 0.0051 0.5954
vn 0.4759 -0.8183 0.3223
vn 0.5837 -0.8119 -0.0000
vn -0.7949 0.0633 -0.6034
vn -0.4972 -0.7944 -0.3490
vn 0.3253 0.0331 0.9450
vn -0.3040 0.0441 0.9517
vn -0.1778 -0.7997 0.5735
vn 0.1820 -0.8017 0.5693
vn 0.8034 0.0051 -0.5954
vn 0.4759 -0.8183 -0.3223
vn 0.4416 0.8972 -0.0000
vn 0.4058 0.8825 -0.2377
vn 0.4058 0.8825 0.2377
vn -0.3330 0.9307 -0.1511
vn -0.3797 0.9251 -0.0000
vn -0.3330 0.9307 0.1511
vn -0.5118 -0.8591 -0.0000
vn -0.4224 -0.8571 -0.2950
vn -0.5458 -0.7450 -0.3836
vn -0.6630 -0.7486 -0.0000
vn 0.4094 -0.8589 0.3078
vn 0.5302 -0.7461 0.4028
vn -0.5494 0.7253 -0.4149
vn -0.2172 0.7223 -0.6566
vn 0.5629 0.7070 0.4283
vn 0.2415 0.7178 0.6530
vn 0.5629 0.7070 -0.4283
vn 0.2415 0.7178 -0.6530
vn -0.5494 0.7253 0.4149
vn -0.2172 0.7223 0.6566
vn 0.7092 0.7051 -0.0000
vn -0.6817 0.7317 -0.0000
vn 0.1593 -0.8661 -0.4739
vn -0.1668 -0.8699 -0.4642
vn 0.1593 -0.8661 0.4739
vn -0.2225 -0.7522 -0.6202
vn 0.2077 -0.7553 -0.6215
vn 0.2077 -0.7553 0.6215
vn -0.4590 0.8885 -0.0000
vn -0.2394 0.4674 -0.8510
vn -0.6346 0.1941 -0.7481
vn -0.9205 0.3909 -0.0000
vn 0.9060 -0.4232 -0.0000
vn 0.2729 -0.3160 0.9087
vn 0.6950 -0.1429 0.7047
vn 0.9988 -0.0491 -0.0000
vn -0.6664 -0.7456 -0.0000
vn -0.4510 -0.5174 -0.7272
vn -0.4510 -0.5174 0.7272
vn -0.6346 0.1941 0.7481
vn 0.2729 -0.3160 -0.9087
vn -0.2394 0.4674 0.8510
vn 0.6950 -0.1429 -0.7047
vn -0.2110 -0.3657 -0.9065
vn 0.3543 0.9351 -0.0000
vn 0.1111 0.4457 0.8883
vn 0.5683 0.8229 -0.0000
vn 0.2674 0.4456 0.8543
vn 0.5905 0.8071 -0.0000
vn 0.3386 0.4507 0.8260
vn 0.5025 0.8646 -0.0000
vn 0.3173 0.4798 0.8180
vn 0.2957 0.9553 -0.0000
vn 0.2249 0.5354 0.8141
vn 0.0600 0.9982 -0.0000
vn 0.0667 0.5406 0.8386
vn -0.1477 0.9890 -0.0000
vn -0.0583 0.5138 0.8559
vn -0.3506 0.9365 -0.0000
vn -0.1730 0.4942 0.8520
vn -0.8442 -0.5361 -0.0000
vn -0.3591 -0.1690 0.9179
vn -0.1339 -0.4602 0.8776
vn -0.3141 -0.9494 -0.0000
vn -0.2537 -0.3994 0.8809
vn -0.5392 -0.8422 -0.0000
vn -0.2658 -0.3643 0.8925
vn -0.5886 -0.8085 -0.0000
vn -0.2187 -0.3555 0.9087
vn -0.5145 -0.8575 -0.0000
vn -0.1336 -0.3542 0.9256
vn -0.3139 -0.9495 -0.0000
vn -0.0458 -0.3869 0.9210
vn -0.0556 -0.9985 -0.0000
vn 0.0405 -0.4192 0.9070
vn 0.1688 -0.9857 -0.0000
vn 0.1364 -0.4239 0.8954
vn 0.4028 -0.9153 -0.0000
vn -0.3591 -0.1690 -0.9179
vn -0.1339 -0.4602 -0.8776
vn 0.1111 0.4457 -0.8883
vn -0.2537 -0.3994 -0.8809
vn 0.2674 0.4456 -0.8543
vn -0.2658 -0.3643 -0.8925
vn 0.3386 0.4507 -0.8260
vn -0.2187 -0.3555 -0.9087
vn 0.3173 0.4798 -0.8180
vn -0.1336 -0.3542 -0.9256
vn 0.2249 0.5354 -0.8141
vn -0.0458 -0.3869 -0.9210
vn 0.0667 0.5406 -0.8386
vn 0.0405 -0.4192 -0.9070
vn -0.0583 0.5138 -0.8559
vn 0.1364 -0.4239 -0.8954
vn -0.1730 0.4942 -0.8520
vn 0.4178 0.7256 -0.5467
vn -0.3970 0.6356 -0.6621
vn 0.4178 0.7257 0.5467
vn 0.7661 0.6427 -0.0000
vn -0.7586 -0.6515 -0.0000
vn -0.2110 -0.3657 0.9065
vn 0.3040 0.0441 0.9517
vn -0.3253 0.0331 0.9450
vn -0.1820 -0.8017 0.5693
vn 0.1778 -0.7997 0.5735
vn 0.7949 0.0633 -0.6034
vn 0.9953 0.0965 -0.0000
vn 0.6363 -0.7714 -0.0000
vn 0.4972 -0.7944 -0.3490
vn -0.8099 0.5866 -0.0000
vn -0.3970 0.6356 0.6621
vn -0.4094 -0.8589 0.3078
vn -0.4981 -0.8671 -0.0000
vn -0.6661 -0.7459 -0.0000
vn -0.5302 -0.7461 0.4028
vn 0.1668 -0.8699 -0.4642
vn 0.4224 -0.8571 -0.2950
vn 0.5458 -0.7450 -0.3836
vn 0.2225 -0.7522 -0.6202
vn -0.9999 0.0169 -0.0000
vn -0.8034 0.0051 -0.5954
vn -0.4759 -0.8183 -0.3223
vn -0.5837 -0.8119 -0.0000
vn 0.7949 0.0633 0.6034
vn 0.4972 -0.7944 0.3490
vn -0.3253 0.0331 -0.9450
vn 0.3040 0.0441 -0.9517
vn 0.1778 -0.7997 -0.5735
vn -0.1820 -0.8017 -0.5693
vn -0.8034 0.0051 0.5954
vn -0.4759 -0.8183 0.3223
vn -0.4416 0.8972 -0.0000
vn -0.4058 0.8825 0.2377
vn -0.4058 0.8825 -0.2377
vn 0.3330 0.9307 0.1511
vn 0.3797 0.9251 -0.0000
vn 0.3330 0.9307 -0.1511
vn 0.5118 -0.8591 -0.0000
vn 0.4224 -0.8571 0.2950
vn 0.5458 -0.7450 0.3836
vn 0.6630 -0.7486 -0.0000
vn -0.4094 -0.8589 -0.3078
vn -0.5302 -0.7461 -0.4028
vn 0.5494 0.7253 0.4149
vn 0.2172 0.7223 0.6566
vn -0.5629 0.7069 -0.4283
vn -0.2415 0.7178 -0.6530
vn -0.5629 0.7069 0.4283
vn -0.2415 0.7178 0.6530
vn 0.5494 0.7253 -0.4149
vn 0.2172 0.7223 -0.6566
vn -0.7092 0.7051 -0.0000
vn 0.6817 0.7317 -0.0000
vn -0.1593 -0.8661 0.4739
vn 0.1669 -0.8699 0.4642
vn -0.1593 -0.8661 -0.4739
vn 0.2225 -0.7522 0.6202
vn -0.2077 -0.7553 0.6215
vn -0.2077 -0.7553 -0.6215
vt 1.000000 0.988509
vt 1.000000 1.000000
vt 0.875000 1.000000
vt 0.875000 0.988509
vt 0.750000 1.000000
vt 0.750000 0.988509
vt 0.625000 1.000000
vt 0.625000 0.988509
vt 0.500000 1.000000
vt 0.500000 0.988509
vt 0.375000 1.000000
vt 0.375000 0.988509
vt 0.250000 1.000000
vt 0.250000 0.988509
vt 0.419706 0.419706
vt 0.250000 0.490000
vt 0.080294 0.419706
vt 0.010000 0.250000
vt 0.080294 0.080294
vt 0.250000 0.010000
vt 0.419706 0.080294
vt 0.490000 0.250000
vt 0.125000 1.000000
vt 0.125000 0.988509
vt 0.000000 1.000000
vt 0.000000 0.988509
vt 0.750000 0.490000
vt 0.919706 0.419706
vt 0.990000 0.250000
vt 0.919706 0.080294
vt 0.750000 0.010000
vt 0.580294 0.080294
vt 0.510000 0.250000
vt 0.580294 0.419706
vt 0.125000 0.500000
vt 0.125000 0.687820
vt 0.000000 0.687820
vt 0.000000 0.500000
vt 0.250000 0.500000
vt 0.250000 0.687820
vt 0.375000 0.500000
vt 0.375000 0.687820
vt 0.500000 0.500000
vt 0.500000 0.687820
vt 0.625000 0.500000
vt 0.625000 0.687820
vt 0.750000 0.500000
vt 0.750000 0.687820
vt 0.875000 0.500000
vt 0.875000 0.687820
vt 1.000000 0.500000
vt 1.000000 0.687820
vt 0.125000 0.757767
vt 0.000000 0.757767
vt 0.250000 0.757767
vt 0.375000 0.757767
vt 0.500000 0.757767
vt 0.625000 0.757767
vt 0.750000 0.757767
vt 0.875000 0.757767
vt 1.000000 0.757767
vt 0.125000 0.984778
vt 0.000000 0.984778
vt 0.250000 0.984778
vt 0.375000 0.984778
vt 0.500000 0.984778
vt 0.625000 0.984778
vt 0.750000 0.988509
vt 0.750000 0.984778
vt 0.875000 0.984778
vt 0.875000 0.984778
vt 1.000000 0.984778
vt 0.875000 0.984778
vt 1.000000 0.925309
vt 0.875000 0.925309
vt 0.750000 0.984778
vt 0.750000 0.925309
vt 0.625000 0.925309
vt 0.500000 0.925309
vt 0.375000 0.925309
vt 0.250000 0.925309
vt 0.125000 0.925309
vt 0.000000 0.925309
vt 0.625000 0.984778
vt 0.625000 0.984778
vt 0.625000 0.984778
vt 0.875000 0.988509
vt 0.875000 0.988509
vt 0.875000 0.984778
vt 0.875000 0.984778
vt 0.750000 0.984778
vt 0.875000 0.984778
vt 0.875000 0.984778
vt 0.750000 0.984778
vt 0.875000 0.984778
vt 0.750000 0.984778
vt 0.625000 0.984778
vt 0.625000 0.988509
vt 0.625000 0.984778
vt 0.875000 0.984778
vt 0.875000 0.984778
vt 0.647347 0.984778
vt 0.748944 0.984778
vt 0.636027 0.984778
vt 0.637847 0.984778
vt 0.750001 0.984778
vt 0.872104 0.984778
vt 0.861616 0.984778
vt 0.749192 0.984778
vt 0.646419 0.984778
vt 0.636637 0.984778
vt 0.852653 0.984778
vt 0.863973 0.984778
vt 0.625000 0.984778
vt 0.853581 0.984778
vt 0.863363 0.984778
vt 0.747541 0.984778
vt 0.833606 0.984778
vt 0.666394 0.984778
vt 0.829538 0.984778
vt 0.746789 0.984778
vt 0.670462 0.984778
vt 0.750001 0.984778
vt 0.638384 0.984778
vt 0.862153 0.984778
vt 0.838955 0.984778
vt 0.658256 0.984778
vt 0.841744 0.984778
vt 0.875000 0.984778
vt 0.661045 0.984778
vt 0.748214 0.984778
vt 0.747667 0.984778
vt 0.627928 0.984778
vt 0.627896 0.984778
vt 0.872072 0.984778
vt 0.125000 0.922038
vt 0.000000 0.922038
vt 0.250000 0.922038
vt 0.375000 0.922038
vt 0.500000 0.922038
vt 0.625000 0.922038
vt 0.750000 0.922038
vt 0.875000 0.922038
vt 1.000000 0.922038
s 1
f 33/1/1 2/2/2 4/3/3 34/4/4
f 34/4/4 4/3/3 6/5/5 35/6/6
f 35/6/6 6/5/5 8/7/7 36/8/8
f 36/8/8 8/7/7 10/9/9 37/10/10
f 37/10/10 10/9/9 12/11/11 38/12/12
f 38/12/12 12/11/11 14/13/13 39/14/14
f 4/15/3 2/16/2 16/17/15 14/18/13 12/19/11 10/20/9 8/21/7 6/22/5
f 39/14/14 14/13/13 16/23/15 40/24/16
f 40/24/16 16/23/15 2/25/2 33/26/1
f 1/27/17 3/28/18 5/29/19 7/30/20 9/31/21 11/32/22 13/33/23 15/34/24
f 15/35/24 24/36/25 17/37/26 1/38/17
f 13/39/23 23/40/27 24/36/25 15/35/24
f 11/41/22 22/42/28 23/40/27 13/39/23
f 9/43/21 21/44/29 22/42/28 11/41/22
f 7/45/20 20/46/30 21/44/29 9/43/21
f 5/47/19 19/48/31 20/46/30 7/45/20
f 3/49/18 18/50/32 19/48/31 5/47/19
f 1/51/17 17/52/26 18/50/32 3/49/18
f 24/36/25 32/53/33 25/54/34 17/37/26
f 23/40/27 31/55/35 32/53/33 24/36/25
f 22/42/28 30/56/36 31/55/35 23/40/27
f 21/44/29 29/57/37 30/56/36 22/42/28
f 20/46/30 28/58/38 29/57/37 21/44/29
f 19/48/31 27/59/39 28/58/38 20/46/30
f 18/50/32 26/60/40 27/59/39 19/48/31
f 17/52/26 25/61/34 26/60/40 18/50/32
f 47/62/41 40/24/16 33/26/1 48/63/1
f 46/64/14 39/14/14 40/24/16 47/62/41
f 45/65/42 38/12/12 39/14/14 46/64/14
f 44/66/10 37/10/10 38/12/12 45/65/42
f 43/67/43 36/8/8 37/10/10 44/66/10
f 82/68/44 81/8/45 50/8/46 49/6/47
f 63/69/48 100/70/49 114/71/50 109/69/51
f 48/72/1 33/1/1 34/4/4 41/73/52
f 316/74/1 48/72/1 41/73/52 317/75/53
f 317/75/53 41/73/52 42/76/54 318/77/55
f 318/77/55 42/76/54 43/67/43 319/78/56
f 319/78/56 43/67/43 44/66/10 320/79/10
f 320/79/10 44/66/10 45/65/42 177/80/57
f 177/80/57 45/65/42 46/64/14 178/81/58
f 178/81/58 46/64/14 47/62/41 179/82/59
f 179/82/59 47/62/41 48/63/1 316/83/1
f 53/76/60 49/6/47 50/8/46 54/84/61
f 52/70/62 51/4/63 49/6/47 53/76/60
f 81/8/45 64/85/64 54/84/61 50/8/46
f 100/70/49 99/4/65 51/4/63 52/70/62
f 54/84/61 64/85/64 113/86/66 112/67/67
f 99/4/65 82/68/44 49/6/47 51/4/63
f 34/4/4 35/6/6 90/6/68 91/87/69
f 91/87/69 90/6/68 89/6/70 92/88/71
f 92/88/71 89/6/70 88/6/72 93/88/73
f 93/88/73 88/6/72 87/6/74 94/87/75
f 94/87/75 87/6/74 86/68/76 95/4/77
f 95/4/77 86/68/76 85/68/78 96/4/79
f 96/4/79 85/68/78 84/68/80 97/4/81
f 97/4/81 84/68/80 83/68/82 98/4/83
f 98/4/83 83/68/82 82/68/44 99/4/65
f 42/76/54 41/73/52 108/89/84 55/69/85
f 55/69/85 108/89/84 107/90/86 56/91/87
f 56/91/87 107/90/86 106/92/88 57/76/89
f 57/76/89 106/92/88 105/93/90 58/94/91
f 58/94/91 105/93/90 104/73/92 59/94/93
f 59/94/93 104/73/92 103/95/94 60/94/95
f 60/94/95 103/95/94 102/70/96 61/96/97
f 61/96/97 102/70/96 101/70/98 62/76/99
f 62/76/99 101/70/98 100/70/49 63/69/48
f 41/73/52 34/4/4 91/87/69 108/89/84
f 108/89/84 91/87/69 92/88/71 107/90/86
f 107/90/86 92/88/71 93/88/73 106/92/88
f 106/92/88 93/88/73 94/87/75 105/93/90
f 105/93/90 94/87/75 95/4/77 104/73/92
f 104/73/92 95/4/77 96/4/79 103/95/94
f 103/95/94 96/4/79 97/4/81 102/70/96
f 102/70/96 97/4/81 98/4/83 101/70/98
f 101/70/98 98/4/83 99/4/65 100/70/49
f 36/8/8 43/67/43 72/85/100 73/8/101
f 73/8/101 72/85/100 71/97/102 74/8/103
f 74/8/103 71/97/102 70/85/104 75/8/105
f 75/8/105 70/85/104 69/67/106 76/98/107
f 76/98/107 69/67/106 68/67/108 77/8/109
f 77/8/109 68/67/108 67/67/110 78/8/111
f 78/8/111 67/67/110 66/99/112 79/8/113
f 79/8/113 66/99/112 65/85/114 80/8/115
f 80/8/115 65/85/114 64/85/64 81/8/45
f 43/67/43 42/76/54 55/69/85 72/85/100
f 72/85/100 55/69/85 56/91/87 71/97/102
f 71/97/102 56/91/87 57/76/89 70/85/104
f 70/85/104 57/76/89 58/94/91 69/67/106
f 69/67/106 58/94/91 59/94/93 68/67/108
f 68/67/108 59/94/93 60/94/95 67/67/110
f 67/67/110 60/94/95 61/96/97 66/99/112
f 66/99/112 61/96/97 62/76/99 65/85/114
f 65/85/114 62/76/99 63/69/48 64/85/64
f 35/6/6 36/8/8 73/8/101 90/6/68
f 90/6/68 73/8/101 74/8/103 89/6/70
f 89/6/70 74/8/103 75/8/105 88/6/72
f 88/6/72 75/8/105 76/98/107 87/6/74
f 87/6/74 76/98/107 77/8/109 86/68/76
f 86/68/76 77/8/109 78/8/111 85/68/78
f 85/68/78 78/8/111 79/8/113 84/68/80
f 84/68/80 79/8/113 80/8/115 83/68/82
f 83/68/82 80/8/115 81/8/45 82/68/44
f 112/67/67 113/86/66 132/86/116 129/67/117
f 109/69/51 114/71/50 130/71/118 115/69/119
f 53/76/60 54/84/61 112/67/67 110/76/120
f 100/70/49 52/70/62 111/73/121 114/71/50
f 64/85/64 63/69/48 109/69/51 113/86/66
f 52/70/62 53/76/60 110/76/120 111/73/121
f 153/100/122 148/101/123 162/73/124 163/71/125
f 155/102/126 147/103/127 165/69/128 166/104/129
f 111/73/121 110/76/120 128/76/130 127/73/131
f 113/86/66 109/69/51 115/69/119 132/86/116
f 114/71/50 111/73/121 127/73/131 130/71/118
f 110/76/120 112/67/67 129/67/117 128/76/130
f 125/105/132 121/106/133 167/106/134 170/105/135
f 123/107/136 135/108/137 171/108/138 175/107/139
f 154/109/140 151/110/141 159/111/142 122/76/143
f 147/103/127 156/112/144 164/113/145 165/69/128
f 149/99/146 152/114/147 161/86/148 160/67/149
f 150/115/150 154/109/140 122/76/143 157/116/151
f 116/117/152 117/118/153 127/73/131 128/76/130
f 118/119/154 116/117/152 128/76/130 129/67/117
f 120/120/155 131/121/156 115/69/119 130/71/118
f 131/121/156 119/122/157 132/86/116 115/69/119
f 158/123/158 133/124/159 169/124/160 168/123/161
f 121/106/133 126/125/162 172/125/163 167/106/134
f 155/102/126 166/104/129 161/86/148 152/114/147
f 150/115/150 157/116/151 162/73/124 148/101/123
f 145/126/164 120/120/155 130/71/118 140/71/165
f 146/127/166 118/119/154 129/67/117 141/99/167
f 151/110/141 146/127/166 141/99/167 149/99/146
f 156/112/144 145/126/164 140/71/165 153/100/122
f 117/118/153 144/128/168 139/129/169 127/73/131
f 119/122/157 143/130/170 138/114/171 132/86/116
f 117/118/153 116/117/152 142/131/172 144/128/168
f 129/67/117 132/86/116 138/114/171 141/99/167
f 131/121/156 120/120/155 145/126/164 137/132/173
f 116/117/152 118/119/154 146/127/166 142/131/172
f 119/122/157 131/121/156 137/132/173 143/130/170
f 130/71/118 127/73/131 139/129/169 140/71/165
f 164/113/145 156/112/144 153/100/122 163/71/125
f 159/111/142 151/110/141 149/99/146 160/67/149
f 144/128/168 150/115/150 148/101/123 139/129/169
f 143/130/170 155/102/126 152/114/147 138/114/171
f 144/128/168 142/131/172 154/109/140 150/115/150
f 141/99/167 138/114/171 152/114/147 149/99/146
f 137/132/173 145/126/164 156/112/144 147/103/127
f 142/131/172 146/127/166 151/110/141 154/109/140
f 143/130/170 137/132/173 147/103/127 155/102/126
f 140/71/165 139/129/169 148/101/123 153/100/122
f 158/123/158 135/108/137 157/116/151 122/76/143
f 133/124/159 158/123/158 122/76/143 159/111/142
f 134/133/174 124/134/175 160/67/149 161/86/148
f 123/107/136 136/135/176 163/71/125 162/73/124
f 126/125/162 121/106/133 165/69/128 164/113/145
f 121/106/133 125/105/132 166/104/129 165/69/128
f 125/105/132 134/133/174 161/86/148 166/104/129
f 124/134/175 133/124/159 159/111/142 160/67/149
f 135/108/137 123/107/136 162/73/124 157/116/151
f 136/135/176 126/125/162 164/113/145 163/71/125
f 170/105/135 167/106/134 168/123/161 169/124/160
f 167/106/134 172/125/163 171/108/138 168/123/161
f 170/105/135 169/124/160 173/134/177 174/133/178
f 171/108/138 172/125/163 176/135/179 175/107/139
f 124/134/175 134/133/174 174/133/178 173/134/177
f 126/125/162 136/135/176 176/135/179 172/125/163
f 134/133/174 125/105/132 170/105/135 174/133/178
f 136/135/176 123/107/136 175/107/139 176/135/179
f 135/108/137 158/123/158 168/123/161 171/108/138
f 133/124/159 124/134/175 173/134/177 169/124/160
f 216/68/180 215/8/181 184/8/182 183/6/183
f 197/69/184 234/70/185 248/71/186 243/69/187
f 187/76/188 183/6/183 184/8/182 188/84/189
f 186/70/190 185/4/191 183/6/183 187/76/188
f 215/8/181 198/85/192 188/84/189 184/8/182
f 234/70/185 233/4/193 185/4/191 186/70/190
f 188/84/189 198/85/192 247/86/194 246/67/195
f 233/4/193 216/68/180 183/6/183 185/4/191
f 177/4/57 178/6/58 224/6/196 225/87/197
f 225/87/197 224/6/196 223/6/198 226/88/199
f 226/88/199 223/6/198 222/6/200 227/88/201
f 227/88/201 222/6/200 221/6/202 228/87/203
f 228/87/203 221/6/202 220/68/204 229/4/205
f 229/4/205 220/68/204 219/68/206 230/4/207
f 230/4/207 219/68/206 218/68/208 231/4/209
f 231/4/209 218/68/208 217/68/210 232/4/211
f 232/4/211 217/68/210 216/68/180 233/4/193
f 181/76/212 180/73/213 242/89/214 189/69/215
f 189/69/215 242/89/214 241/90/216 190/91/217
f 190/91/217 241/90/216 240/92/218 191/76/219
f 191/76/219 240/92/218 239/93/220 192/94/221
f 192/94/221 239/93/220 238/73/222 193/94/223
f 193/94/223 238/73/222 237/95/224 194/94/225
f 194/94/225 237/95/224 236/70/226 195/96/227
f 195/96/227 236/70/226 235/70/228 196/76/229
f 196/76/229 235/70/228 234/70/185 197/69/184
f 180/73/213 177/4/57 225/87/197 242/89/214
f 242/89/214 225/87/197 226/88/199 241/90/216
f 241/90/216 226/88/199 227/88/201 240/92/218
f 240/92/218 227/88/201 228/87/203 239/93/220
f 239/93/220 228/87/203 229/4/205 238/73/222
f 238/73/222 229/4/205 230/4/207 237/95/224
f 237/95/224 230/4/207 231/4/209 236/70/226
f 236/70/226 231/4/209 232/4/211 235/70/228
f 235/70/228 232/4/211 233/4/193 234/70/185
f 179/8/59 182/67/230 206/85/231 207/8/232
f 207/8/232 206/85/231 205/97/233 208/8/234
f 208/8/234 205/97/233 204/85/235 209/8/236
f 209/8/236 204/85/235 203/67/237 210/98/238
f 210/98/238 203/67/237 202/67/239 211/8/240
f 211/8/240 202/67/239 201/67/241 212/8/242
f 212/8/242 201/67/241 200/99/243 213/8/244
f 213/8/244 200/99/243 199/85/245 214/8/246
f 214/8/246 199/85/245 198/85/192 215/8/181
f 182/67/230 181/76/212 189/69/215 206/85/231
f 206/85/231 189/69/215 190/91/217 205/97/233
f 205/97/233 190/91/217 191/76/219 204/85/235
f 204/85/235 191/76/219 192/94/221 203/67/237
f 203/67/237 192/94/221 193/94/223 202/67/239
f 202/67/239 193/94/223 194/94/225 201/67/241
f 201/67/241 194/94/225 195/96/227 200/99/243
f 200/99/243 195/96/227 196/76/229 199/85/245
f 199/85/245 196/76/229 197/69/184 198/85/192
f 178/6/58 179/8/59 207/8/232 224/6/196
f 224/6/196 207/8/232 208/8/234 223/6/198
f 223/6/198 208/8/234 209/8/236 222/6/200
f 222/6/200 209/8/236 210/98/238 221/6/202
f 221/6/202 210/98/238 211/8/240 220/68/204
f 220/68/204 211/8/240 212/8/242 219/68/206
f 219/68/206 212/8/242 213/8/244 218/68/208
f 218/68/208 213/8/244 214/8/246 217/68/210
f 217/68/210 214/8/246 215/8/181 216/68/180
f 246/67/195 247/86/194 266/86/247 263/67/248
f 243/69/187 248/71/186 264/71/249 249/69/250
f 187/76/188 188/84/189 246/67/195 244/76/251
f 234/70/185 186/70/190 245/73/252 248/71/186
f 198/85/192 197/69/184 243/69/187 247/86/194
f 186/70/190 187/76/188 244/76/251 245/73/252
f 287/100/253 282/101/254 296/73/255 297/71/256
f 289/102/257 281/103/258 299/69/259 300/104/260
f 245/73/252 244/76/251 262/76/261 261/73/262
f 247/86/194 243/69/187 249/69/250 266/86/247
f 248/71/186 245/73/252 261/73/262 264/71/249
f 244/76/251 246/67/195 263/67/248 262/76/261
f 259/105/263 255/106/264 301/106/265 304/105/266
f 257/107/267 269/108/268 305/108/269 309/107/270
f 288/109/271 285/110/272 293/111/273 256/76/274
f 281/103/258 290/112/275 298/113/276 299/69/259
f 283/99/277 286/114/278 295/86/279 294/67/280
f 284/115/281 288/109/271 256/76/274 291/116/282
f 250/117/283 251/118/284 261/73/262 262/76/261
f 252/119/285 250/117/283 262/76/261 263/67/248
f 254/120/286 265/121/287 249/69/250 264/71/249
f 265/121/287 253/122/288 266/86/247 249/69/250
f 292/123/289 267/124/290 303/124/291 302/123/292
f 255/106/264 260/125/293 306/125/294 301/106/265
f 289/102/257 300/104/260 295/86/279 286/114/278
f 284/115/281 291/116/282 296/73/255 282/101/254
f 279/126/295 254/120/286 264/71/249 274/71/296
f 280/127/297 252/119/285 263/67/248 275/99/298
f 285/110/272 280/127/297 275/99/298 283/99/277
f 290/112/275 279/126/295 274/71/296 287/100/253
f 251/118/284 278/128/299 273/129/300 261/73/262
f 253/122/288 277/130/301 272/114/302 266/86/247
f 251/118/284 250/117/283 276/131/303 278/128/299
f 263/67/248 266/86/247 272/114/302 275/99/298
f 265/121/287 254/120/286 279/126/295 271/132/304
f 250/117/283 252/119/285 280/127/297 276/131/303
f 253/122/288 265/121/287 271/132/304 277/130/301
f 264/71/249 261/73/262 273/129/300 274/71/296
f 298/113/276 290/112/275 287/100/253 297/71/256
f 293/111/273 285/110/272 283/99/277 294/67/280
f 278/128/299 284/115/281 282/101/254 273/129/300
f 277/130/301 289/102/257 286/114/278 272/114/302
f 278/128/299 276/131/303 288/109/271 284/115/281
f 275/99/298 272/114/302 286/114/278 283/99/277
f 271/132/304 279/126/295 290/112/275 281/103/258
f 276/131/303 280/127/297 285/110/272 288/109/271
f 277/130/301 271/132/304 281/103/258 289/102/257
f 274/71/296 273/129/300 282/101/254 287/100/253
f 292/123/289 269/108/268 291/116/282 256/76/274
f 267/124/290 292/123/289 256/76/274 293/111/273
f 268/133/305 258/134/306 294/67/280 295/86/279
f 257/107/267 270/135/307 297/71/256 296/73/255
f 260/125/293 255/106/264 299/69/259 298/113/276
f 255/106/264 259/105/263 300/104/260 299/69/259
f 259/105/263 268/133/305 295/86/279 300/104/260
f 258/134/306 267/124/290 293/111/273 294/67/280
f 269/108/268 257/107/267 296/73/255 291/116/282
f 270/135/307 260/125/293 298/113/276 297/71/256
f 304/105/266 301/106/265 302/123/292 303/124/291
f 301/106/265 306/125/294 305/108/269 302/123/292
f 304/105/266 303/124/291 307/134/308 308/133/309
f 305/108/269 306/125/294 310/135/310 309/107/270
f 258/134/306 268/133/305 308/133/309 307/134/308
f 260/125/293 270/135/307 310/135/310 306/125/294
f 268/133/305 259/105/263 304/105/266 308/133/309
f 270/135/307 257/107/267 309/107/270 310/135/310
f 269/108/268 292/123/289 302/123/292 305/108/269
f 267/124/290 258/134/306 307/134/308 303/124/291
f 32/53/33 182/136/230 315/137/1 25/54/34
f 31/55/35 181/138/212 182/136/230 32/53/33
f 30/56/36 180/139/213 181/138/212 31/55/35
f 29/57/37 314/140/10 180/139/213 30/56/36
f 28/58/38 313/141/56 314/140/10 29/57/37
f 27/59/39 312/142/55 313/141/56 28/58/38
f 26/60/40 311/143/53 312/142/55 27/59/39
f 25/61/34 315/144/1 311/143/53 26/60/40
f 182/136/230 179/82/59 316/83/1 315/137/1
f 314/140/10 320/79/10 177/80/57 180/139/213
f 313/141/56 319/78/56 320/79/10 314/140/10
f 312/142/55 318/77/55 319/78/56 313/141/56
f 311/143/53 317/75/53 318/77/55 312/142/55
f 315/144/1 316/74/1 317/75/53 311/143/53
